# xmcd
#
# Track frame offsets:
#	150
#	13740
#	23894
#	37034
#	52734
#	60040
#	73151
#	87347
#	99703
#	111369
#	125910
#	139337
#	151678
#	165357
#	182399
#	195652
#	207578
#	222466
#	238280
#	253967
#	266913
#	276762
#	289579
#	304136
#	317330
#
# Disc length: 4398 seconds
#
# Revision: 1
# Processed by: cddbd v1.5.2PL0 Copyright (c) Steve Scherf et al.
# Submitted via: audiograbber 1.83.01
#
DISCID=75112c19
DTITLE=Various Artist - 125 Hits The War Years CD1
DYEAR=1900
DGENRE=Oldies
TTITLE0=Vera Lynn - We'll Meet Again
TTITLE1=The Mayfair Orchestra - Rule Britannia
TTITLE2=George Formby - When I'm Cleaning Windows
TTITLE3=Glen Miller - Chattanooga Choo Choo
TTITLE4=Andrew Sisters - Don't Fence Me In
TTITLE5=Billie Holiday - That Ole Devil Called Love
TTITLE6=Ella Fitzgerald - Into Each Life Some Rain Must Fall
TTITLE7=Fats Waller - I Can't Give You Anything But Love
TTITLE8=Frank Sinatra - Long Ago And Far Away
TTITLE9=Mel Tormé - Where Or When
TTITLE10=Django Reinhardt - The Sheik Of Araby
TTITLE11=Dick Haymes - Love Letters
TTITLE12=Count Basie - 12th Street Rag
TTITLE13=Bette Davis - They're Either Too Young Or Too Old (from Thank Your Luc
TTITLE13=ky Stars)
TTITLE14=Benny Goodman - Cuckoo In The Clock
TTITLE15=The Mills Brothers - Paper Doll
TTITLE16=Doris Day - We'll Be Together Again
TTITLE17=Billie Holiday - I Cover The Waterfront
TTITLE18=Sidney Bechet - After You've Gone
TTITLE19=Bill Boyd - Jitterburg Jive
TTITLE20=Perry Como - You Won't Be Satisfied
TTITLE21=Dinah Shore - Body And Soul
TTITLE22=Gracie Fields - Isle Of Capri
TTITLE23=Arthur Askey - Get In Your Shelter
TTITLE24=Flanagan And Allen - Run Rabbit Run
EXTD=(p)2009 Weton-Wesgram BV, Netherlands
EXTT0=
EXTT1=
EXTT2=
EXTT3=
EXTT4=
EXTT5=
EXTT6=
EXTT7=
EXTT8=
EXTT9=
EXTT10=
EXTT11=
EXTT12=
EXTT13=
EXTT14=
EXTT15=
EXTT16=
EXTT17=
EXTT18=
EXTT19=
EXTT20=
EXTT21=
EXTT22=
EXTT23=
EXTT24=
PLAYORDER=
